<?xml version="1.0" encoding="UTF-8"?>
<svg width="48" height="48" viewBox="0 0 48 48" fill="none" xmlns="http://www.w3.org/2000/svg">
  <path d="M40 32H38V20C38 18.9 37.1 18 36 18H30V8C30 6.9 29.1 6 28 6H8C6.9 6 6 6.9 6 8V34C6 35.1 6.9 36 8 36H10.2C10.6 38.8 13.1 41 16 41C18.9 41 21.4 38.8 21.8 36H30.2C30.6 38.8 33.1 41 36 41C38.9 41 41.4 38.8 41.8 36H44C45.1 36 46 35.1 46 34V32H40ZM16 37C14.3 37 13 35.7 13 34C13 32.3 14.3 31 16 31C17.7 31 19 32.3 19 34C19 35.7 17.7 37 16 37ZM28 22H36L42 28V32H40.2C39.8 29.2 37.3 27 34.4 27C31.5 27 29 29.2 28.6 32H28V22ZM36 37C34.3 37 33 35.7 33 34C33 32.3 34.3 31 36 31C37.7 31 39 32.3 39 34C39 35.7 37.7 37 36 37Z" fill="#B87D3B"/>
</svg> 